<svg xmlns="http://www.w3.org/2000/svg" xmlns:xlink="http://www.w3.org/1999/xlink" width="428" height="143" viewBox="0 0 428 143">
  <defs>
    <clipPath id="clip-New-Site-Logo">
      <rect width="428" height="143"/>
    </clipPath>
  </defs>
  <g id="New-Site-Logo" clip-path="url(#clip-New-Site-Logo)">
    <rect width="428" height="143" fill="rgba(24,158,224,0.71)"/>
    <rect id="Rectangle_1" data-name="Rectangle 1" width="407" height="126" transform="translate(10 9)" fill="#fff"/>
    <g id="Group_1" data-name="Group 1" transform="translate(119 3)">
      <path id="Path_1" data-name="Path 1" d="M1.9,0V-21.328H8.467A9.966,9.966,0,0,1,13.5-20.061a8.836,8.836,0,0,1,3.464,3.6,11.115,11.115,0,0,1,1.245,5.31v.981a11.146,11.146,0,0,1-1.223,5.288,8.76,8.76,0,0,1-3.45,3.589A10.041,10.041,0,0,1,8.511,0ZM6.3-17.769V-3.53H8.423a4.772,4.772,0,0,0,3.94-1.685,7.612,7.612,0,0,0,1.392-4.819v-1.128a7.733,7.733,0,0,0-1.348-4.929,4.756,4.756,0,0,0-3.94-1.677ZM25.591,0H21.343V-15.85h4.248Zm-4.5-19.951a2.085,2.085,0,0,1,.637-1.567,2.394,2.394,0,0,1,1.736-.615,2.4,2.4,0,0,1,1.729.615,2.073,2.073,0,0,1,.645,1.567,2.078,2.078,0,0,1-.652,1.582,2.4,2.4,0,0,1-1.721.615,2.4,2.4,0,0,1-1.721-.615A2.078,2.078,0,0,1,21.094-19.951ZM38.262,0a4.7,4.7,0,0,1-.425-1.421,5.122,5.122,0,0,1-4,1.714,5.627,5.627,0,0,1-3.86-1.348,4.334,4.334,0,0,1-1.531-3.4A4.479,4.479,0,0,1,30.315-8.32a9.216,9.216,0,0,1,5.4-1.362h1.948v-.908a2.612,2.612,0,0,0-.564-1.758,2.219,2.219,0,0,0-1.78-.659,2.522,2.522,0,0,0-1.677.513,1.742,1.742,0,0,0-.608,1.406H28.8a4.252,4.252,0,0,1,.85-2.549,5.616,5.616,0,0,1,2.4-1.838,8.755,8.755,0,0,1,3.486-.667,6.917,6.917,0,0,1,4.651,1.472,5.15,5.15,0,0,1,1.721,4.138v6.87a7.577,7.577,0,0,0,.63,3.413V0Zm-3.5-2.944a3.646,3.646,0,0,0,1.729-.417,2.742,2.742,0,0,0,1.172-1.121V-7.207H36.079q-3.179,0-3.384,2.2l-.015.249a1.7,1.7,0,0,0,.557,1.3A2.162,2.162,0,0,0,34.761-2.944Zm14.3-12.905.132,1.831a5.534,5.534,0,0,1,4.556-2.124,4.6,4.6,0,0,1,3.75,1.479,6.9,6.9,0,0,1,1.26,4.424V0H54.521V-10.137a2.746,2.746,0,0,0-.586-1.956,2.623,2.623,0,0,0-1.948-.608,2.912,2.912,0,0,0-2.681,1.523V0H45.073V-15.85Zm16.8,0,.132,1.831a5.534,5.534,0,0,1,4.556-2.124,4.6,4.6,0,0,1,3.75,1.479,6.9,6.9,0,0,1,1.26,4.424V0H71.323V-10.137a2.746,2.746,0,0,0-.586-1.956,2.623,2.623,0,0,0-1.948-.608,2.912,2.912,0,0,0-2.681,1.523V0H61.875V-15.85ZM87.949,0a4.7,4.7,0,0,1-.425-1.421,5.122,5.122,0,0,1-4,1.714,5.627,5.627,0,0,1-3.86-1.348,4.334,4.334,0,0,1-1.531-3.4A4.479,4.479,0,0,1,80-8.32a9.216,9.216,0,0,1,5.4-1.362h1.948v-.908a2.612,2.612,0,0,0-.564-1.758A2.219,2.219,0,0,0,85-13.008a2.522,2.522,0,0,0-1.677.513,1.742,1.742,0,0,0-.608,1.406H78.486a4.252,4.252,0,0,1,.85-2.549,5.616,5.616,0,0,1,2.4-1.838,8.755,8.755,0,0,1,3.486-.667,6.917,6.917,0,0,1,4.651,1.472A5.15,5.15,0,0,1,91.6-10.532v6.87a7.577,7.577,0,0,0,.63,3.413V0Zm-3.5-2.944a3.646,3.646,0,0,0,1.729-.417,2.742,2.742,0,0,0,1.172-1.121V-7.207H85.767q-3.179,0-3.384,2.2l-.015.249a1.7,1.7,0,0,0,.557,1.3A2.162,2.162,0,0,0,84.448-2.944ZM102.6,0V-21.328h6.563a9.966,9.966,0,0,1,5.032,1.267,8.836,8.836,0,0,1,3.464,3.6,11.115,11.115,0,0,1,1.245,5.31v.981a11.146,11.146,0,0,1-1.223,5.288,8.76,8.76,0,0,1-3.45,3.589A10.041,10.041,0,0,1,109.2,0Zm4.395-17.769V-3.53h2.124a4.772,4.772,0,0,0,3.94-1.685,7.612,7.612,0,0,0,1.392-4.819v-1.128a7.733,7.733,0,0,0-1.348-4.929,4.756,4.756,0,0,0-3.94-1.677Zm14.165,9.7a9.4,9.4,0,0,1,.908-4.2,6.649,6.649,0,0,1,2.615-2.856,7.628,7.628,0,0,1,3.962-1.011,7.217,7.217,0,0,1,5.237,1.963,7.878,7.878,0,0,1,2.263,5.332l.029,1.084a8.284,8.284,0,0,1-2.036,5.852,7.078,7.078,0,0,1-5.464,2.2A7.113,7.113,0,0,1,123.2-1.9a8.43,8.43,0,0,1-2.043-5.977Zm4.233.3a5.925,5.925,0,0,0,.85,3.455,2.8,2.8,0,0,0,2.432,1.2,2.809,2.809,0,0,0,2.4-1.181,6.483,6.483,0,0,0,.864-3.778,5.865,5.865,0,0,0-.864-3.433,2.809,2.809,0,0,0-2.432-1.218,2.764,2.764,0,0,0-2.4,1.21A6.592,6.592,0,0,0,125.391-7.771Zm17.358-8.079.132,1.772a5.57,5.57,0,0,1,4.556-2.065,4.227,4.227,0,0,1,4.2,2.417,5.442,5.442,0,0,1,4.761-2.417,4.727,4.727,0,0,1,3.838,1.5,6.9,6.9,0,0,1,1.26,4.519V0h-4.248V-10.107a3.018,3.018,0,0,0-.527-1.97,2.337,2.337,0,0,0-1.86-.623,2.642,2.642,0,0,0-2.637,1.816L152.241,0h-4.233V-10.093a2.981,2.981,0,0,0-.542-1.992,2.36,2.36,0,0,0-1.846-.615,2.743,2.743,0,0,0-2.607,1.494V0h-4.233V-15.85ZM169.219,0h-4.248V-15.85h4.248Zm-4.5-19.951a2.085,2.085,0,0,1,.637-1.567,2.394,2.394,0,0,1,1.736-.615,2.4,2.4,0,0,1,1.729.615,2.073,2.073,0,0,1,.645,1.567,2.078,2.078,0,0,1-.652,1.582,2.4,2.4,0,0,1-1.721.615,2.4,2.4,0,0,1-1.721-.615A2.078,2.078,0,0,1,164.722-19.951Zm11.88,4.1.132,1.831a5.534,5.534,0,0,1,4.556-2.124,4.6,4.6,0,0,1,3.75,1.479,6.9,6.9,0,0,1,1.26,4.424V0h-4.233V-10.137a2.746,2.746,0,0,0-.586-1.956,2.623,2.623,0,0,0-1.948-.608,2.912,2.912,0,0,0-2.681,1.523V0h-4.233V-15.85Zm12.29,7.808a9.289,9.289,0,0,1,1.736-5.874,5.624,5.624,0,0,1,4.68-2.227,4.933,4.933,0,0,1,4.058,1.787l.176-1.494h3.838V-.527a6.774,6.774,0,0,1-.945,3.618,6.068,6.068,0,0,1-2.659,2.344,9.347,9.347,0,0,1-4.014.806,8.691,8.691,0,0,1-3.4-.7,6.032,6.032,0,0,1-2.5-1.794l1.875-2.578a4.959,4.959,0,0,0,3.838,1.772,3.63,3.63,0,0,0,2.622-.9,3.379,3.379,0,0,0,.938-2.556v-.85A4.9,4.9,0,0,1,195.278.293a5.61,5.61,0,0,1-4.622-2.234,9.286,9.286,0,0,1-1.765-5.925Zm4.233.315a5.784,5.784,0,0,0,.864,3.382,2.749,2.749,0,0,0,2.373,1.225,2.94,2.94,0,0,0,2.769-1.452v-6.675a2.933,2.933,0,0,0-2.739-1.452,2.767,2.767,0,0,0-2.4,1.247A6.519,6.519,0,0,0,193.125-7.727Zm23,6.115a5.309,5.309,0,0,1-4.336,1.9A5.007,5.007,0,0,1,207.9-1.172a6.253,6.253,0,0,1-1.37-4.292V-15.85h4.233V-5.6q0,2.478,2.256,2.478a3.057,3.057,0,0,0,2.959-1.5V-15.85h4.248V0H216.24Zm14.59,1.9a7.781,7.781,0,0,1-5.676-2.139,7.6,7.6,0,0,1-2.19-5.7v-.41a9.575,9.575,0,0,1,.923-4.27,6.773,6.773,0,0,1,2.615-2.9,7.339,7.339,0,0,1,3.86-1.018,6.578,6.578,0,0,1,5.12,2.051,8.333,8.333,0,0,1,1.868,5.815v1.729H227.139a3.933,3.933,0,0,0,1.238,2.49,3.742,3.742,0,0,0,2.615.938,4.569,4.569,0,0,0,3.823-1.772l2.08,2.329a6.355,6.355,0,0,1-2.578,2.1A8.458,8.458,0,0,1,230.713.293Zm-.483-13.022a2.645,2.645,0,0,0-2.043.853,4.419,4.419,0,0,0-1,2.443h5.889v-.339a3.152,3.152,0,0,0-.762-2.185A2.729,2.729,0,0,0,230.229-12.729ZM244.5-3.413h7.749V0H239.092V-2.578l7.456-9.858h-7.236V-15.85h12.7v2.494Z" transform="translate(-28 65)"/>
      <path id="Path_2" data-name="Path 2" d="M10.625-14.219l.02,9.629a5.341,5.341,0,0,1-.361,1.865,4.666,4.666,0,0,1-.957,1.519A4.5,4.5,0,0,1,7.861-.181,4.558,4.558,0,0,1,6,.2,4.659,4.659,0,0,1,4.111-.176,4.337,4.337,0,0,1,2.656-1.2,4.74,4.74,0,0,1,1.709-2.72a5.232,5.232,0,0,1-.352-1.87l.02-9.629H3.1L3.135-4.59a4.132,4.132,0,0,0,.2,1.221,3.278,3.278,0,0,0,.547,1.035,2.683,2.683,0,0,0,.889.723A2.645,2.645,0,0,0,6-1.338a2.654,2.654,0,0,0,1.221-.269A2.619,2.619,0,0,0,8.1-2.329a3.262,3.262,0,0,0,.542-1.04A4.48,4.48,0,0,0,8.848-4.59l.029-9.629Zm3.076,0h8.594v1.572H18.887V-1.562h3.408V0H13.7V-1.562h3.33V-12.646H13.7ZM28.086,1.221H26.465L32.4-14.219h1.611ZM46.631-14.219l.02,9.629a5.341,5.341,0,0,1-.361,1.865,4.666,4.666,0,0,1-.957,1.519A4.5,4.5,0,0,1,43.867-.181,4.558,4.558,0,0,1,42,.2a4.659,4.659,0,0,1-1.885-.371A4.337,4.337,0,0,1,38.662-1.2a4.74,4.74,0,0,1-.947-1.523,5.232,5.232,0,0,1-.352-1.87l.02-9.629H39.1l.039,9.629a4.132,4.132,0,0,0,.2,1.221,3.279,3.279,0,0,0,.547,1.035,2.683,2.683,0,0,0,.889.723A2.645,2.645,0,0,0,42-1.338a2.654,2.654,0,0,0,1.221-.269,2.619,2.619,0,0,0,.884-.723,3.262,3.262,0,0,0,.542-1.04,4.48,4.48,0,0,0,.205-1.221l.029-9.629Zm7.48,5.576,3.066-5.576h2.129L55.176-7.168,59.4,0H57.295L54.15-5.684,51,0H48.857L53.1-7.168l-4.131-7.051h2.119ZM73.525,0V-14.219h3.291a7.124,7.124,0,0,1,2.651.5,5.569,5.569,0,0,1,1.973,1.348,5.837,5.837,0,0,1,1.23,2.07,8.161,8.161,0,0,1,.435,2.671v1.045a8.161,8.161,0,0,1-.435,2.671,5.837,5.837,0,0,1-1.23,2.07A5.569,5.569,0,0,1,79.468-.493,7,7,0,0,1,76.816,0Zm1.836-12.734v11.26h1.455a4.734,4.734,0,0,0,1.992-.405A3.886,3.886,0,0,0,80.2-2.959a4.544,4.544,0,0,0,.82-1.611A7.453,7.453,0,0,0,81.3-6.582V-7.646a7.271,7.271,0,0,0-.283-2.007,4.606,4.606,0,0,0-.82-1.6,3.817,3.817,0,0,0-1.387-1.069,4.888,4.888,0,0,0-1.992-.41ZM90.381.2a5.361,5.361,0,0,1-2.046-.381,4.642,4.642,0,0,1-1.6-1.064A4.869,4.869,0,0,1,85.7-2.871a5.5,5.5,0,0,1-.371-2.041v-.41a6.046,6.046,0,0,1,.41-2.29,5.25,5.25,0,0,1,1.089-1.709,4.751,4.751,0,0,1,1.543-1.069,4.451,4.451,0,0,1,1.772-.371,4.712,4.712,0,0,1,2,.4,3.919,3.919,0,0,1,1.421,1.094,4.667,4.667,0,0,1,.845,1.646,7.247,7.247,0,0,1,.278,2.051v.811H87.139a4.15,4.15,0,0,0,.278,1.357A3.526,3.526,0,0,0,88.1-2.3a3.158,3.158,0,0,0,1.04.747,3.213,3.213,0,0,0,1.338.273A3.674,3.674,0,0,0,92.2-1.67a3.728,3.728,0,0,0,1.25-1.035l1.1.859a4.192,4.192,0,0,1-.659.767,4.551,4.551,0,0,1-.913.649,5.138,5.138,0,0,1-1.172.454A5.631,5.631,0,0,1,90.381.2Zm-.234-9.473a2.7,2.7,0,0,0-1.035.2,2.7,2.7,0,0,0-.879.586,3.341,3.341,0,0,0-.659.947A4.5,4.5,0,0,0,87.2-6.25h5.684v-.137a4.034,4.034,0,0,0-.2-1.045,2.911,2.911,0,0,0-.5-.928,2.516,2.516,0,0,0-.835-.664A2.626,2.626,0,0,0,90.146-9.277ZM104.736-2.8a1.3,1.3,0,0,0-.127-.581,1.3,1.3,0,0,0-.43-.474,3.392,3.392,0,0,0-.8-.4,8.575,8.575,0,0,0-1.24-.327,12.5,12.5,0,0,1-1.655-.449,5.449,5.449,0,0,1-1.279-.63,2.754,2.754,0,0,1-.825-.859,2.2,2.2,0,0,1-.293-1.147,2.5,2.5,0,0,1,.3-1.206,3.072,3.072,0,0,1,.85-.981,4.274,4.274,0,0,1,1.3-.664,5.4,5.4,0,0,1,1.665-.244,5.673,5.673,0,0,1,1.758.254,4.03,4.03,0,0,1,1.328.7,3.178,3.178,0,0,1,.845,1.05,2.872,2.872,0,0,1,.3,1.294h-1.807a1.4,1.4,0,0,0-.176-.669,1.916,1.916,0,0,0-.488-.581,2.507,2.507,0,0,0-.757-.41,3,3,0,0,0-1-.156,3.617,3.617,0,0,0-1.011.127,2.259,2.259,0,0,0-.723.342,1.458,1.458,0,0,0-.435.5,1.26,1.26,0,0,0-.146.586,1.271,1.271,0,0,0,.117.557,1.141,1.141,0,0,0,.405.439,3.071,3.071,0,0,0,.771.352,11.04,11.04,0,0,0,1.226.3,14.252,14.252,0,0,1,1.748.474,5.142,5.142,0,0,1,1.3.645,2.688,2.688,0,0,1,.806.874,2.323,2.323,0,0,1,.278,1.152,2.607,2.607,0,0,1-.317,1.279,3,3,0,0,1-.884.986,4.291,4.291,0,0,1-1.357.635A6.311,6.311,0,0,1,102.256.2a5.885,5.885,0,0,1-1.914-.288,4.574,4.574,0,0,1-1.421-.762,3.281,3.281,0,0,1-.889-1.1,2.907,2.907,0,0,1-.308-1.3h1.807a1.87,1.87,0,0,0,.3.938,2.074,2.074,0,0,0,.645.615,2.687,2.687,0,0,0,.854.332,4.539,4.539,0,0,0,.928.1,3.358,3.358,0,0,0,1.807-.42A1.293,1.293,0,0,0,104.736-2.8ZM110-10.566h5.4v9h3.447V0H110V-1.562h3.594V-8.994H110Zm3.359-2.773a1.11,1.11,0,0,1,.269-.757,1.025,1.025,0,0,1,.815-.308,1.028,1.028,0,0,1,.811.308,1.1,1.1,0,0,1,.273.757,1.032,1.032,0,0,1-.273.732,1.056,1.056,0,0,1-.811.293,1.053,1.053,0,0,1-.815-.293A1.043,1.043,0,0,1,113.359-13.34Zm8.027,7.969a7.763,7.763,0,0,1,.288-2.173,5.112,5.112,0,0,1,.835-1.7,3.9,3.9,0,0,1,1.328-1.113,3.82,3.82,0,0,1,1.768-.4,3.988,3.988,0,0,1,1.714.347,3.46,3.46,0,0,1,1.255,1l.088-1.152H130.3V-.225a4.926,4.926,0,0,1-.327,1.855,3.9,3.9,0,0,1-.918,1.377,3.911,3.911,0,0,1-1.411.859,5.369,5.369,0,0,1-1.816.293,5.479,5.479,0,0,1-.937-.093,5.689,5.689,0,0,1-1.069-.3,4.93,4.93,0,0,1-1.045-.562,3.481,3.481,0,0,1-.864-.869l.938-1.084a4.628,4.628,0,0,0,.684.679,3.521,3.521,0,0,0,.713.444,3.3,3.3,0,0,0,.723.239,3.629,3.629,0,0,0,.723.073,3.427,3.427,0,0,0,1.162-.186,2.418,2.418,0,0,0,.884-.542,2.352,2.352,0,0,0,.562-.884,3.474,3.474,0,0,0,.2-1.211v-.908a3.526,3.526,0,0,1-1.245.923A4.084,4.084,0,0,1,125.586.2a3.7,3.7,0,0,1-1.748-.41,3.909,3.909,0,0,1-1.323-1.133,5.372,5.372,0,0,1-.835-1.7,7.359,7.359,0,0,1-.293-2.114Zm1.807.205a6.455,6.455,0,0,0,.161,1.465,3.744,3.744,0,0,0,.508,1.221,2.581,2.581,0,0,0,.884.835,2.553,2.553,0,0,0,1.289.308,2.948,2.948,0,0,0,.845-.112,2.38,2.38,0,0,0,.674-.317,2.608,2.608,0,0,0,.532-.488,3.454,3.454,0,0,0,.41-.625V-7.725a3.3,3.3,0,0,0-.41-.605,2.573,2.573,0,0,0-.537-.474,2.555,2.555,0,0,0-.674-.312,2.824,2.824,0,0,0-.82-.112,2.568,2.568,0,0,0-1.3.313,2.6,2.6,0,0,0-.889.845,3.8,3.8,0,0,0-.508,1.23,6.519,6.519,0,0,0-.161,1.47Zm12.148-5.4L135.469-9a4.2,4.2,0,0,1,1.416-1.284,3.891,3.891,0,0,1,1.875-.474,4.6,4.6,0,0,1,1.509.234,2.884,2.884,0,0,1,1.157.732,3.331,3.331,0,0,1,.737,1.265,5.713,5.713,0,0,1,.259,1.821V0h-1.807V-6.67a3.946,3.946,0,0,0-.156-1.191A1.9,1.9,0,0,0,140-8.652a1.812,1.812,0,0,0-.752-.439,3.473,3.473,0,0,0-1.021-.137,2.833,2.833,0,0,0-1.6.454,3.349,3.349,0,0,0-1.1,1.2V0h-1.807V-10.566ZM150.391.2a5.361,5.361,0,0,1-2.046-.381,4.642,4.642,0,0,1-1.6-1.064,4.869,4.869,0,0,1-1.035-1.621,5.5,5.5,0,0,1-.371-2.041v-.41a6.046,6.046,0,0,1,.41-2.29,5.251,5.251,0,0,1,1.089-1.709,4.751,4.751,0,0,1,1.543-1.069,4.451,4.451,0,0,1,1.772-.371,4.712,4.712,0,0,1,2,.4,3.92,3.92,0,0,1,1.421,1.094,4.667,4.667,0,0,1,.845,1.646,7.247,7.247,0,0,1,.278,2.051v.811h-7.549a4.15,4.15,0,0,0,.278,1.357A3.526,3.526,0,0,0,148.11-2.3a3.158,3.158,0,0,0,1.04.747,3.213,3.213,0,0,0,1.338.273,3.674,3.674,0,0,0,1.719-.391,3.728,3.728,0,0,0,1.25-1.035l1.1.859a4.192,4.192,0,0,1-.659.767,4.551,4.551,0,0,1-.913.649,5.137,5.137,0,0,1-1.172.454A5.631,5.631,0,0,1,150.391.2Zm-.234-9.473a2.7,2.7,0,0,0-1.035.2,2.7,2.7,0,0,0-.879.586,3.341,3.341,0,0,0-.659.947,4.5,4.5,0,0,0-.376,1.294h5.684v-.137a4.034,4.034,0,0,0-.2-1.045,2.911,2.911,0,0,0-.5-.928,2.517,2.517,0,0,0-.835-.664A2.626,2.626,0,0,0,150.156-9.277Zm14.492-1.484q.254,0,.527.015t.522.049q.249.034.459.083a2.11,2.11,0,0,1,.347.107L166.26-8.74a9.629,9.629,0,0,0-1-.171,8.8,8.8,0,0,0-.991-.054,3.4,3.4,0,0,0-2.056.576,3.326,3.326,0,0,0-1.157,1.611V0h-1.816V-10.566h1.719l.088,1.68a4.855,4.855,0,0,1,1.548-1.372A4.154,4.154,0,0,1,164.648-10.762Z" transform="translate(4 99)"/>
    </g>
  </g>
</svg>
